<svg width="75" height="97" viewBox="0 0 75 97" fill="none" xmlns="http://www.w3.org/2000/svg">
<circle cx="37.5" cy="37.5" r="37.5" fill="#41463D"/>
<path d="M75 37.2774C75 57.8651 58.2107 33.4736 37.5 33.4736C16.7893 33.4736 0 57.8651 0 37.2774C0 16.6897 16.7893 0 37.5 0C58.2107 0 75 16.6897 75 37.2774Z" fill="#7CFF90"/>
<circle cx="37.5" cy="37.5" r="28.125" fill="url(#paint0_linear)"/>
<path d="M29.3234 22.2466H29.2843L25.5539 24.9322V23.0767L29.3039 20.3814H31.0226V34.4732H29.3234V22.2466ZM35.505 34.5709C35.3488 34.5709 35.2023 34.5416 35.0656 34.483C34.9289 34.4244 34.8117 34.3463 34.714 34.2486C34.6164 34.1509 34.5383 34.0338 34.4797 33.897C34.4211 33.7603 34.3918 33.6138 34.3918 33.4576C34.3918 33.3013 34.4211 33.1548 34.4797 33.0181C34.5383 32.8814 34.6164 32.7642 34.714 32.6666C34.8117 32.5624 34.9289 32.4843 35.0656 32.4322C35.2023 32.3736 35.3488 32.3443 35.505 32.3443C35.8241 32.3443 36.0877 32.4517 36.2961 32.6666C36.5109 32.8749 36.6183 33.1386 36.6183 33.4576C36.6183 33.6138 36.589 33.7603 36.5304 33.897C36.4784 34.0338 36.4002 34.1509 36.2961 34.2486C36.1984 34.3463 36.0812 34.4244 35.9445 34.483C35.8078 34.5416 35.6613 34.5709 35.505 34.5709ZM44.0304 34.7076C43.3534 34.7076 42.7284 34.6099 42.1554 34.4146C41.5825 34.2128 41.0812 33.9328 40.6515 33.5748C40.2284 33.2102 39.8898 32.7772 39.6359 32.2759C39.382 31.7746 39.2355 31.2245 39.1965 30.6255H40.925C40.964 31.0032 41.0682 31.3482 41.2375 31.6607C41.4133 31.9667 41.6379 32.2336 41.9113 32.4615C42.1847 32.6828 42.5037 32.8554 42.8683 32.9791C43.2329 33.1028 43.6268 33.1646 44.05 33.1646C44.5252 33.1646 44.9614 33.0865 45.3586 32.9302C45.7622 32.7675 46.104 32.5461 46.384 32.2662C46.6704 31.9797 46.8918 31.6412 47.048 31.2505C47.2108 30.8534 47.2922 30.4172 47.2922 29.942C47.2922 29.4667 47.2108 29.0305 47.048 28.6334C46.8918 28.2362 46.6704 27.8944 46.384 27.608C46.104 27.3215 45.7655 27.0969 45.3683 26.9341C44.9777 26.7714 44.548 26.69 44.0793 26.69C43.4152 26.69 42.8195 26.83 42.2922 27.1099C41.7648 27.3899 41.3547 27.7772 41.0617 28.272H39.4113L40.1828 20.3814H48.2492V21.9439H41.6281L41.1984 26.5338H41.2375C41.5565 26.1041 41.9927 25.772 42.5461 25.5377C43.0994 25.2968 43.7147 25.1763 44.3918 25.1763C45.0689 25.1763 45.6906 25.2935 46.257 25.5279C46.8299 25.7623 47.3215 26.091 47.7316 26.5142C48.1483 26.9309 48.4705 27.4289 48.6984 28.0084C48.9328 28.5813 49.05 29.2095 49.05 29.8931C49.05 30.6028 48.9263 31.2538 48.6789 31.8463C48.4315 32.4322 48.0864 32.94 47.6437 33.3697C47.201 33.7929 46.6704 34.1216 46.0519 34.356C45.4399 34.5904 44.7661 34.7076 44.0304 34.7076ZM31.5109 47.9459H33.5812L28.9816 52.4966L33.7179 58.4732H31.7453L27.7902 53.5416L26.7941 54.4791V58.4732H25.0949V43.7662H26.7941V52.6529L31.5109 47.9459ZM35.0168 47.9459H36.6183V49.6548H36.6574C36.7811 49.3749 36.9406 49.1242 37.1359 48.9029C37.3377 48.675 37.5656 48.483 37.8195 48.3267C38.0799 48.1705 38.3631 48.0533 38.6691 47.9752C38.9751 47.8905 39.3006 47.8482 39.6457 47.8482C40.3618 47.8482 40.9738 48.0207 41.4816 48.3658C41.9959 48.7108 42.367 49.2024 42.5949 49.8404H42.634C42.9334 49.2089 43.3729 48.7206 43.9523 48.3755C44.5383 48.024 45.2023 47.8482 45.9445 47.8482C46.4653 47.8482 46.9373 47.9296 47.3605 48.0923C47.7837 48.2551 48.1418 48.4862 48.4347 48.7857C48.7342 49.0852 48.9653 49.4465 49.1281 49.8697C49.2909 50.2929 49.3722 50.7649 49.3722 51.2857V58.4732H47.673V51.6763C47.673 50.9472 47.481 50.3808 47.0968 49.9771C46.7127 49.567 46.1659 49.3619 45.4562 49.3619C45.1047 49.3619 44.7791 49.4237 44.4797 49.5474C44.1867 49.6711 43.9328 49.8436 43.7179 50.065C43.5096 50.2864 43.3436 50.55 43.2199 50.856C43.1027 51.162 43.0441 51.494 43.0441 51.8521V58.4732H41.3449V51.4713C41.3449 51.1522 41.2928 50.8658 41.1886 50.6119C41.0845 50.3515 40.9347 50.1301 40.7394 49.9478C40.5506 49.759 40.3228 49.6158 40.0558 49.5181C39.7889 49.414 39.4894 49.3619 39.1574 49.3619C38.8058 49.3619 38.4803 49.427 38.1808 49.5572C37.8814 49.6874 37.6242 49.8697 37.4093 50.1041C37.1945 50.3319 37.0252 50.6021 36.9015 50.9146C36.7778 51.2271 36.716 51.5689 36.716 51.94V58.4732H35.0168V47.9459Z" fill="#41463D"/>
<path d="M24.127 93.1367C23.4694 93.1367 22.8639 93.0065 22.3105 92.7461C21.7637 92.4857 21.2917 92.1178 20.8945 91.6426C20.4974 91.1673 20.1882 90.6009 19.9668 89.9434C19.7454 89.2793 19.6348 88.5469 19.6348 87.7461C19.6348 86.9453 19.7454 86.2129 19.9668 85.5488C20.1882 84.8848 20.4941 84.3151 20.8848 83.8398C21.2819 83.3646 21.7539 82.9967 22.3008 82.7363C22.8542 82.4759 23.4596 82.3457 24.1172 82.3457C24.6055 82.3457 25.0612 82.4206 25.4844 82.5703C25.9141 82.7201 26.2982 82.9251 26.6367 83.1855C26.9818 83.446 27.2747 83.7552 27.5156 84.1133C27.7565 84.4648 27.9355 84.8457 28.0527 85.2559H28.0723V78.293H28.834V93H28.1211V90.168H28.0918C27.9681 90.5911 27.7826 90.985 27.5352 91.3496C27.2943 91.7142 27.0013 92.0299 26.6562 92.2969C26.3177 92.5573 25.9336 92.7624 25.5039 92.9121C25.0742 93.0618 24.6152 93.1367 24.127 93.1367ZM24.2148 83.0391C23.6549 83.0391 23.1406 83.153 22.6719 83.3809C22.2031 83.6087 21.7995 83.9277 21.4609 84.3379C21.1289 84.748 20.8685 85.2428 20.6797 85.8223C20.4974 86.3952 20.4062 87.0332 20.4062 87.7363C20.4062 88.4395 20.4974 89.0807 20.6797 89.6602C20.8685 90.2396 21.1289 90.7376 21.4609 91.1543C21.7995 91.5645 22.2031 91.8835 22.6719 92.1113C23.1406 92.3392 23.6549 92.4531 24.2148 92.4531C24.7812 92.4531 25.2988 92.3392 25.7676 92.1113C26.2428 91.877 26.6497 91.5547 26.9883 91.1445C27.3333 90.7279 27.6003 90.2331 27.7891 89.6602C27.9844 89.0807 28.082 88.4427 28.082 87.7461C28.082 87.0495 27.9844 86.4147 27.7891 85.8418C27.6003 85.2624 27.3333 84.7643 26.9883 84.3477C26.6497 83.931 26.2428 83.6087 25.7676 83.3809C25.2988 83.153 24.7812 83.0391 24.2148 83.0391ZM34.5176 92.4629C35.0449 92.4629 35.5365 92.375 35.9922 92.1992C36.4544 92.0234 36.8548 91.7858 37.1934 91.4863C37.5384 91.1803 37.8086 90.8255 38.0039 90.4219C38.1992 90.0117 38.2969 89.5723 38.2969 89.1035V87.5312L34.791 87.7949C33.7819 87.8665 33.0137 88.1042 32.4863 88.5078C31.959 88.9049 31.6953 89.4583 31.6953 90.168C31.6953 90.5 31.7637 90.8092 31.9004 91.0957C32.0436 91.3757 32.2389 91.6165 32.4863 91.8184C32.7402 92.0202 33.0397 92.1797 33.3848 92.2969C33.7298 92.4076 34.1074 92.4629 34.5176 92.4629ZM34.4199 93.1367C33.9056 93.1367 33.4336 93.0651 33.0039 92.9219C32.5807 92.7786 32.2129 92.5768 31.9004 92.3164C31.5944 92.0495 31.3568 91.737 31.1875 91.3789C31.0182 91.0143 30.9336 90.6107 30.9336 90.168C30.9336 89.263 31.2493 88.5599 31.8809 88.0586C32.5124 87.5508 33.4499 87.2513 34.6934 87.1602L38.2969 86.8965V85.959C38.2969 85.5033 38.2285 85.0931 38.0918 84.7285C37.9551 84.3639 37.7565 84.0579 37.4961 83.8105C37.2422 83.5632 36.9297 83.3743 36.5586 83.2441C36.1875 83.1074 35.7643 83.0391 35.2891 83.0391C34.3906 83.0391 33.6615 83.2572 33.1016 83.6934C32.5417 84.123 32.1966 84.7383 32.0664 85.5391H31.334C31.3796 85.0508 31.5065 84.6113 31.7148 84.2207C31.9297 83.8301 32.2096 83.4948 32.5547 83.2148C32.8997 82.9349 33.3034 82.7201 33.7656 82.5703C34.2344 82.4206 34.7454 82.3457 35.2988 82.3457C35.8717 82.3457 36.3893 82.4303 36.8516 82.5996C37.3203 82.7624 37.7142 82.9967 38.0332 83.3027C38.3587 83.6087 38.6094 83.9831 38.7852 84.4258C38.9609 84.8685 39.0488 85.3633 39.0488 85.9102V93H38.3164V90.7344H38.2969C38.1667 91.0924 37.9746 91.418 37.7207 91.7109C37.4733 92.0039 37.1771 92.2578 36.832 92.4727C36.4935 92.681 36.1191 92.8438 35.709 92.9609C35.2988 93.0781 34.8691 93.1367 34.4199 93.1367ZM41.4121 82.4824H42.1738V93H41.4121V82.4824ZM41.793 79.9043C41.6237 79.9043 41.4805 79.849 41.3633 79.7383C41.2461 79.6211 41.1875 79.4779 41.1875 79.3086C41.1875 79.1393 41.2461 78.9961 41.3633 78.8789C41.4805 78.7617 41.6237 78.7031 41.793 78.7031C41.9622 78.7031 42.1055 78.7617 42.2227 78.8789C42.3464 78.9961 42.4082 79.1393 42.4082 79.3086C42.4082 79.4779 42.3464 79.6211 42.2227 79.7383C42.1055 79.849 41.9622 79.9043 41.793 79.9043ZM44.6934 78.293H45.4551V93H44.6934V78.293ZM48.5312 96.457C48.4336 96.457 48.3327 96.444 48.2285 96.418C48.1309 96.3984 48.056 96.3822 48.0039 96.3691V95.6953C48.0625 95.7148 48.1439 95.7311 48.248 95.7441C48.3522 95.7637 48.4531 95.7734 48.5508 95.7734C48.7852 95.7734 48.9967 95.7376 49.1855 95.666C49.3743 95.5944 49.5469 95.4805 49.7031 95.3242C49.8594 95.1745 50.0026 94.9759 50.1328 94.7285C50.2695 94.4811 50.4062 94.1816 50.543 93.8301L50.8066 93.1465L46.7832 82.4824H47.5938L51.1973 92.2578H51.2168L54.8203 82.4824H55.6211L51.5488 93.332C51.3145 93.9635 51.0931 94.4811 50.8848 94.8848C50.6829 95.2884 50.4681 95.6074 50.2402 95.8418C50.0189 96.0762 49.7715 96.2357 49.498 96.3203C49.2246 96.4115 48.9023 96.457 48.5312 96.457Z" fill="#41463D"/>
<defs>
<linearGradient id="paint0_linear" x1="37.5" y1="9.375" x2="37.5" y2="65.625" gradientUnits="userSpaceOnUse">
<stop offset="0.0107108" stop-color="#B5FFBC"/>
<stop offset="1" stop-color="#D2F0D7"/>
</linearGradient>
</defs>
</svg>
